<svg xmlns="http://www.w3.org/2000/svg" width="80" height="80" viewBox="0 0 80 80"><g fill="none" fill-rule="evenodd"><path stroke="#484848" stroke-linecap="round" d="M37.891 50.705c4.584-1.85 8.61-5.256 11.216-9.957m2.764-9.071c.456-5.499-1.142-10.977-4.48-15.29a21.3 21.3 0 0 0-6.53-5.599c-5.845-3.24-12.566-3.444-18.403-1.139-4.65 1.836-8.739 5.265-11.375 10.022a22.5 22.5 0 0 0-2.832 10.308 22.1 22.1 0 0 0 3.058 11.86 21.3 21.3 0 0 0 8.02 7.79 21.3 21.3 0 0 0 8.427 2.594 21.85 21.85 0 0 0 10.135-1.518"/><path stroke="#484848" stroke-linecap="round" d="M28.774 45.86a16.05 16.05 0 0 1-9.688-4.642m-3.693-5.7c-1.4-3.695-1.38-7.782.065-11.41a15.2 15.2 0 0 1 3.392-5.144c3.384-3.384 7.97-4.852 12.444-4.417 3.564.346 7.056 1.9 9.81 4.654 1.9 1.9 3.23 4.153 3.984 6.538a15.83 15.83 0 0 1 .236 8.768 15.25 15.25 0 0 1-3.984 6.947 15.2 15.2 0 0 1-5.289 3.449 15.65 15.65 0 0 1-7.277.956"/><g fill="#484848" fill-rule="nonzero"><path d="m35.644 35.95-12-12 .572-.572 12 12z"/><path d="m36.215 23.95-12 12-.57-.572 11.999-12z"/></g><path stroke="#484848" stroke-linecap="square" d="m52.267 52.61-6.646-6.647"/><path fill="#FFDB15" d="m61.601 54.585-2.823-2.824c-1.405-1.405-3.988-1.099-5.768.682-1.78 1.78-2.087 4.363-.682 5.768l9.599 9.599 8.89 8.89c1.403 1.404 3.987 1.098 5.767-.682s2.086-4.364.683-5.768"/><path stroke="#484848" stroke-linecap="round" d="M52.095 58.273c-1.404-1.405-1.283-3.803.27-5.356s3.951-1.674 5.356-.27l9.6 9.6 8.89 8.89"/></g></svg>